<?xml version="1.0" encoding="UTF-8"?>
<svg id="Layer_1" xmlns="http://www.w3.org/2000/svg" viewBox="0 0 346.85 112.33">
  <defs>
    <style>
      .cls-1, .cls-2 {
        fill: #fff;
      }

      .cls-2 {
        fill-rule: evenodd;
      }
    </style>
  </defs>
  <g>
    <path class="cls-2" d="M93.77,24.5h-14.52l-28.25,40.97v-4.01l25.27-36.97h-3.39l-21.88,31.58v-4.01l18.72-27.57h-3.6l-15.12,22.18v-3.99l12.14-18.19h-3.58l-8.56,12.6v-12.6H7.63c0,.13,0,.27,0,.41,0,23.85,19.29,43.18,43.07,43.18s43.07-19.33,43.07-43.18v-.41Z"/>
    <path class="cls-2" d="M12.77,85.89h0c-.01,2.61-2.14,4.72-4.75,4.72s-4.74-2.11-4.75-4.72h0v-9.04H0v9.06h0c.02,4.41,3.6,7.97,8.02,7.97s8-3.56,8.02-7.97h0v-9.06h-3.26v9.04Z"/>
    <rect class="cls-1" x="40.84" y="76.94" width="3.16" height="16.84"/>
    <polygon class="cls-2" points="61.24 76.94 55.74 91.01 50.25 76.94 46.82 76.94 53.39 93.78 58.07 93.78 64.67 76.94 61.24 76.94"/>
    <polygon class="cls-2" points="69.22 76.94 62.65 93.78 66.08 93.78 71.57 79.71 77.06 93.78 80.5 93.78 73.9 76.94 69.22 76.94"/>
    <polygon class="cls-2" points="33.29 89.9 23.57 76.94 20.38 76.94 20.38 93.78 23.57 93.78 23.57 81.45 32.82 93.78 36.48 93.78 36.48 76.94 33.29 76.94 33.29 89.9"/>
    <polygon class="cls-2" points="86.83 76.95 83.48 76.95 83.48 93.77 95.14 93.77 95.14 91.23 86.83 91.23 86.83 76.95"/>
    <rect class="cls-1" x="98.21" y="76.94" width="3.19" height="16.84"/>
  </g>
  <g>
    <path class="cls-1" d="M165.2,14.28c-1.18-1.18-2.33-3.82-2.33-3.82,0,0-1.14,2.64-2.32,3.82-1.41,1.41-3.8,2.32-3.8,2.32,0,0,2.38.9,3.8,2.32,1.18,1.18,2.32,3.82,2.32,3.82,0,0,1.15-2.64,2.33-3.82,1.41-1.41,3.81-2.32,3.81-2.32,0,0-2.4-.91-3.81-2.32"/>
    <polygon class="cls-2" points="135.78 23.07 139.25 26.55 135.81 29.99 139.62 33.8 146.87 26.55 139.59 19.26 135.78 23.07"/>
    <polygon class="cls-2" points="146.48 23.07 149.95 26.55 146.51 29.99 150.32 33.8 157.57 26.55 150.29 19.26 146.48 23.07"/>
    <g>
      <path class="cls-1" d="M148.51,2.44c0,1.35-1.1,2.44-2.44,2.44s-2.44-1.09-2.44-2.44,1.09-2.44,2.44-2.44,2.44,1.1,2.44,2.44"/>
      <path class="cls-1" d="M155.29,2.44c0,1.35-1.09,2.44-2.44,2.44s-2.44-1.09-2.44-2.44,1.09-2.44,2.44-2.44,2.44,1.1,2.44,2.44"/>
      <path class="cls-1" d="M155.29,9.09c0,1.35-1.09,2.44-2.44,2.44s-2.44-1.09-2.44-2.44,1.09-2.44,2.44-2.44,2.44,1.09,2.44,2.44"/>
      <path class="cls-1" d="M148.51,9.09c0,1.35-1.1,2.44-2.44,2.44s-2.44-1.09-2.44-2.44,1.09-2.44,2.44-2.44,2.44,1.09,2.44,2.44"/>
    </g>
  </g>
  <g>
    <path class="cls-1" d="M172.8,48.34c-1.64,0-3.15-.3-4.53-.9s-2.58-1.44-3.57-2.52c-.99-1.08-1.77-2.36-2.32-3.83-.56-1.47-.83-3.09-.83-4.86s.26-3.33.79-4.83c.52-1.49,1.27-2.79,2.24-3.9.97-1.1,2.15-1.96,3.54-2.59,1.39-.62,2.94-.93,4.67-.93,1.44,0,2.73.2,3.86.61,1.13.4,2.11.96,2.93,1.67.82.71,1.47,1.54,1.95,2.5.48.96.79,2,.92,3.11h-4.71c-.22-1.18-.75-2.12-1.6-2.83-.85-.71-1.96-1.06-3.34-1.06-1.09,0-2.04.21-2.83.64-.8.43-1.46,1.01-1.98,1.75-.52.74-.92,1.62-1.18,2.62s-.39,2.08-.39,3.24.15,2.3.44,3.31c.29,1,.72,1.87,1.28,2.6.56.73,1.23,1.3,2.03,1.7.8.4,1.69.61,2.67.61,1.4,0,2.55-.38,3.45-1.13.91-.75,1.43-1.75,1.59-3h4.65c-.07,1.05-.32,2.05-.75,3-.44.95-1.05,1.8-1.83,2.54-.81.76-1.78,1.37-2.93,1.82-1.15.45-2.54.67-4.17.67Z"/>
    <path class="cls-1" d="M184.58,24.44h4.45v3.99h-4.45v-3.99ZM184.58,31.06h4.45v16.79h-4.45v-16.79Z"/>
    <path class="cls-1" d="M199.81,48.34c-1.4,0-2.64-.23-3.72-.69s-1.99-1.09-2.73-1.88c-.74-.8-1.3-1.74-1.69-2.83-.38-1.09-.57-2.26-.57-3.5s.2-2.41.61-3.49c.4-1.08.97-2.01,1.7-2.8.73-.79,1.6-1.41,2.62-1.87s2.13-.69,3.36-.69c1.35,0,2.54.25,3.57.74,1.03.49,1.89,1.18,2.59,2.08.7.89,1.23,1.96,1.59,3.19.36,1.23.54,2.6.54,4.11h-12.18c.17,1.31.62,2.34,1.33,3.08.71.74,1.7,1.11,2.96,1.11.87,0,1.57-.19,2.1-.56s.91-.87,1.15-1.51h4.39c-.15.74-.43,1.45-.83,2.11-.4.67-.93,1.25-1.57,1.75-.64.5-1.4.9-2.28,1.19-.87.29-1.84.44-2.91.44ZM196.96,24.7h4.78l3.14,4.12h-3.86l-1.57-2.26h-.07l-1.6,2.26h-3.9l3.08-4.12ZM199.45,34.03c-1.18,0-2.07.32-2.68.97s-1.01,1.52-1.21,2.63h7.46c-.07-1.07-.42-1.94-1.06-2.6-.64-.67-1.48-1-2.5-1Z"/>
    <path class="cls-1" d="M214.08,33.35h.1c.57-.92,1.25-1.6,2.05-2.06.8-.46,1.77-.69,2.93-.69.87,0,1.66.16,2.37.47.71.32,1.31.75,1.82,1.31.5.56.89,1.22,1.18,1.98.28.76.43,1.6.43,2.52v10.97h-4.45v-10.31c0-.92-.25-1.66-.75-2.23s-1.22-.85-2.16-.85-1.8.36-2.44,1.06c-.64.71-.97,1.64-.97,2.8v9.53h-4.45v-16.79h4.35v2.29Z"/>
    <path class="cls-1" d="M235.49,48.34c-1.33,0-2.53-.23-3.58-.69-1.06-.46-1.96-1.09-2.7-1.88-.74-.8-1.31-1.73-1.72-2.82-.4-1.08-.61-2.24-.61-3.49s.2-2.41.59-3.49c.39-1.08.95-2.02,1.69-2.82.73-.8,1.61-1.42,2.64-1.88s2.18-.69,3.47-.69c1.09,0,2.07.15,2.95.46.87.31,1.63.73,2.27,1.26s1.17,1.18,1.57,1.93.68,1.59.83,2.5h-4.35c-.15-.74-.5-1.36-1.03-1.85s-1.22-.74-2.05-.74c-1.35,0-2.37.47-3.04,1.42-.68.95-1.01,2.24-1.01,3.88s.32,2.88.97,3.85c.64.97,1.65,1.46,3.03,1.46.92,0,1.67-.23,2.26-.7.59-.47.96-1.18,1.11-2.14h4.29c-.07.89-.29,1.73-.67,2.5-.38.77-.9,1.45-1.54,2.03-.64.58-1.42,1.04-2.32,1.38-.91.34-1.92.51-3.03.51Z"/>
    <path class="cls-1" d="M244.98,24.44h4.45v3.99h-4.45v-3.99ZM244.98,31.06h4.45v16.79h-4.45v-16.79Z"/>
    <path class="cls-1" d="M262.89,47.85c-.13-.17-.24-.44-.33-.79-.09-.35-.15-.71-.2-1.08h-.07c-.22.33-.46.63-.74.9s-.6.51-.98.7-.83.35-1.36.47c-.52.12-1.15.18-1.87.18-1.72,0-3.13-.44-4.22-1.31-1.09-.87-1.64-2.15-1.64-3.83,0-.92.17-1.69.52-2.32.35-.63.83-1.16,1.44-1.57.61-.41,1.33-.74,2.14-.97.82-.23,1.7-.41,2.64-.54,1.4-.2,2.42-.4,3.08-.62.65-.22.98-.64.98-1.28s-.23-1.1-.7-1.46c-.47-.36-1.17-.54-2.11-.54-1.05,0-1.83.19-2.36.57-.52.38-.82.98-.88,1.78h-3.96c.02-.74.19-1.45.49-2.11.31-.67.75-1.25,1.34-1.75.59-.5,1.33-.91,2.23-1.21.89-.31,1.95-.46,3.18-.46,2.51,0,4.32.54,5.42,1.62s1.65,2.6,1.65,4.57v8.54c0,1.27.2,2.04.59,2.32v.16h-4.29ZM258.44,45.13c.63,0,1.19-.09,1.69-.28.49-.19.91-.43,1.24-.72.34-.29.59-.63.77-1.01.17-.38.26-.78.26-1.19v-2.52c-.39.24-.87.43-1.42.57-.56.14-1.12.28-1.69.41-1.18.26-2.05.57-2.62.92-.57.35-.85.92-.85,1.7s.24,1.34.72,1.65c.48.32,1.11.47,1.9.47Z"/>
    <path class="cls-1" d="M281.19,48.34c-1.05,0-2.01-.21-2.88-.62s-1.62-1-2.24-1.77-1.11-1.7-1.46-2.8c-.35-1.1-.52-2.33-.52-3.68s.17-2.51.52-3.6c.35-1.09.85-2.02,1.49-2.8.64-.77,1.4-1.38,2.28-1.82.87-.44,1.83-.65,2.88-.65,1.18,0,2.15.24,2.91.72.76.48,1.38,1.07,1.83,1.77h.1v-8.64h4.45v23.41h-4.29v-2.19h-.07c-.5.81-1.17,1.46-2,1.95-.83.49-1.83.74-3.01.74ZM282.17,44.61c1.33,0,2.33-.45,3.01-1.36.68-.91,1.01-2.13,1.01-3.68,0-.81-.07-1.54-.21-2.19-.14-.66-.37-1.22-.67-1.69-.31-.47-.7-.83-1.19-1.1-.49-.26-1.1-.39-1.82-.39-1.22,0-2.14.49-2.77,1.47-.62.98-.93,2.25-.93,3.8,0,1.64.31,2.9.92,3.8.61.9,1.49,1.34,2.65,1.34Z"/>
    <path class="cls-1" d="M304,47.85c-.13-.17-.24-.44-.33-.79-.09-.35-.15-.71-.2-1.08h-.07c-.22.33-.46.63-.74.9s-.6.51-.98.7-.83.35-1.36.47c-.52.12-1.15.18-1.87.18-1.72,0-3.13-.44-4.22-1.31-1.09-.87-1.64-2.15-1.64-3.83,0-.92.17-1.69.52-2.32.35-.63.83-1.16,1.44-1.57.61-.41,1.33-.74,2.14-.97.82-.23,1.7-.41,2.64-.54,1.4-.2,2.42-.4,3.08-.62.65-.22.98-.64.98-1.28s-.23-1.1-.7-1.46c-.47-.36-1.17-.54-2.11-.54-1.05,0-1.83.19-2.36.57-.52.38-.82.98-.88,1.78h-3.96c.02-.74.19-1.45.49-2.11.31-.67.75-1.25,1.34-1.75.59-.5,1.33-.91,2.23-1.21.89-.31,1.95-.46,3.18-.46,2.51,0,4.32.54,5.42,1.62s1.65,2.6,1.65,4.57v8.54c0,1.27.2,2.04.59,2.32v.16h-4.29ZM299.55,45.13c.63,0,1.19-.09,1.69-.28.49-.19.91-.43,1.24-.72.34-.29.59-.63.77-1.01.17-.38.26-.78.26-1.19v-2.52c-.39.24-.87.43-1.42.57-.56.14-1.12.28-1.69.41-1.18.26-2.05.57-2.62.92-.57.35-.85.92-.85,1.7s.24,1.34.72,1.65c.48.32,1.11.47,1.9.47Z"/>
    <path class="cls-1" d="M172.8,87.71c-1.64,0-3.15-.3-4.53-.9s-2.58-1.44-3.57-2.52c-.99-1.08-1.77-2.36-2.32-3.83-.56-1.47-.83-3.09-.83-4.86s.26-3.33.79-4.83c.52-1.49,1.27-2.79,2.24-3.9.97-1.1,2.15-1.96,3.54-2.59,1.39-.62,2.94-.93,4.67-.93,1.44,0,2.73.2,3.86.61,1.13.4,2.11.96,2.93,1.67.82.71,1.47,1.54,1.95,2.5.48.96.79,2,.92,3.11h-4.71c-.22-1.18-.75-2.12-1.6-2.83-.85-.71-1.96-1.06-3.34-1.06-1.09,0-2.04.21-2.83.64-.8.43-1.46,1.01-1.98,1.75-.52.74-.92,1.62-1.18,2.62s-.39,2.08-.39,3.24.15,2.3.44,3.31c.29,1,.72,1.87,1.28,2.6.56.73,1.23,1.3,2.03,1.7.8.4,1.69.61,2.67.61,1.4,0,2.55-.38,3.45-1.13.91-.75,1.43-1.75,1.59-3h4.65c-.07,1.05-.32,2.05-.75,3-.44.95-1.05,1.8-1.83,2.54-.81.76-1.78,1.37-2.93,1.82-1.15.45-2.54.67-4.17.67Z"/>
    <path class="cls-1" d="M192.7,87.71c-1.31,0-2.5-.23-3.57-.69-1.07-.46-1.99-1.09-2.77-1.88-.77-.8-1.38-1.73-1.8-2.82-.43-1.08-.64-2.24-.64-3.49s.21-2.41.64-3.49c.43-1.08,1.03-2.02,1.8-2.82.77-.8,1.7-1.42,2.77-1.88,1.07-.46,2.26-.69,3.57-.69s2.5.23,3.57.69,1.99,1.09,2.77,1.88c.77.8,1.38,1.74,1.8,2.82.43,1.08.64,2.24.64,3.49s-.21,2.41-.64,3.49c-.43,1.08-1.03,2.02-1.8,2.82-.77.8-1.7,1.42-2.77,1.88s-2.26.69-3.57.69ZM192.7,84.31c1.38,0,2.43-.5,3.16-1.51.73-1,1.1-2.33,1.1-3.96s-.37-2.96-1.1-3.98c-.73-1.01-1.78-1.52-3.16-1.52s-2.43.51-3.16,1.52c-.73,1.02-1.1,2.34-1.1,3.98s.37,2.96,1.1,3.96c.73,1,1.78,1.51,3.16,1.51Z"/>
    <path class="cls-1" d="M203.54,70.43h4.29v2.26h.1c.46-.76,1.09-1.41,1.9-1.93.81-.52,1.8-.79,2.98-.79,1.07,0,2.01.27,2.82.8.81.54,1.42,1.25,1.83,2.14h.07c.57-.92,1.28-1.64,2.14-2.16.86-.52,1.83-.79,2.9-.79,1.77,0,3.13.53,4.09,1.59.96,1.06,1.44,2.52,1.44,4.37v11.29h-4.45v-10.54c0-.96-.22-1.68-.67-2.16-.45-.48-1.09-.72-1.92-.72-.94,0-1.68.33-2.21,1-.54.67-.8,1.56-.8,2.67v9.76h-4.45v-10.54c0-.96-.22-1.68-.67-2.16-.45-.48-1.09-.72-1.92-.72-.92,0-1.65.33-2.19,1-.55.67-.82,1.56-.82,2.67v9.76h-4.45v-16.79Z"/>
    <path class="cls-1" d="M230.84,70.43h4.29v2.1h.1c.54-.74,1.22-1.35,2.01-1.83.8-.48,1.77-.72,2.93-.72s2.12.22,3.01.65c.89.44,1.66,1.04,2.31,1.82.64.77,1.13,1.71,1.47,2.8.34,1.09.51,2.29.51,3.6s-.17,2.58-.52,3.68c-.35,1.1-.85,2.04-1.49,2.8-.64.76-1.41,1.35-2.31,1.77-.9.41-1.88.62-2.95.62-1.18,0-2.16-.22-2.95-.66-.79-.44-1.42-1.01-1.9-1.73h-.07v7.4h-4.45v-22.29ZM239.25,84.01c1.13,0,2.03-.44,2.7-1.33.67-.88,1-2.12,1-3.72s-.3-2.89-.9-3.9c-.6-1-1.59-1.51-2.96-1.51-.7,0-1.29.14-1.78.43-.49.28-.9.67-1.21,1.15-.32.48-.55,1.05-.69,1.72-.14.67-.21,1.37-.21,2.11,0,1.53.34,2.75,1.03,3.67.69.92,1.7,1.38,3.03,1.38Z"/>
    <path class="cls-1" d="M260.14,87.22v-1.96h-.1c-.57.76-1.22,1.36-1.95,1.78-.73.42-1.69.64-2.86.64-1.88,0-3.32-.54-4.32-1.64-1-1.09-1.51-2.56-1.51-4.42v-11.2h4.42v10.44c0,.98.22,1.73.67,2.26.45.52,1.15.79,2.11.79,1.05,0,1.87-.35,2.47-1.06.6-.71.9-1.62.9-2.73v-9.69h4.45v16.79h-4.29Z"/>
    <path class="cls-1" d="M266.32,70.43h2.32v-5.24h4.35v5.24h2.88v2.95h-2.88v8.9c0,.63.15,1.07.46,1.31.31.24.71.36,1.21.36h.85c.15,0,.31-.01.46-.03v3.27c-.22.02-.46.03-.72.03-.24.02-.53.03-.88.03h-1.18c-.55,0-1.09-.06-1.62-.18-.54-.12-1.02-.33-1.46-.64-.44-.3-.79-.72-1.06-1.24-.27-.52-.41-1.18-.41-1.96v-9.85h-2.32v-2.95Z"/>
    <path class="cls-1" d="M288.91,87.22c-.13-.17-.24-.44-.33-.79-.09-.35-.15-.71-.2-1.08h-.07c-.22.33-.46.63-.74.9s-.6.51-.98.7-.83.35-1.36.47c-.52.12-1.15.18-1.87.18-1.72,0-3.13-.44-4.22-1.31-1.09-.87-1.64-2.15-1.64-3.83,0-.92.17-1.69.52-2.32.35-.63.83-1.16,1.44-1.57.61-.41,1.33-.74,2.14-.97.82-.23,1.7-.41,2.64-.54,1.4-.2,2.42-.4,3.08-.62.65-.22.98-.64.98-1.28s-.23-1.1-.7-1.46c-.47-.36-1.17-.54-2.11-.54-1.05,0-1.83.19-2.36.57-.52.38-.82.98-.88,1.78h-3.96c.02-.74.19-1.45.49-2.11.31-.67.75-1.25,1.34-1.75.59-.5,1.33-.91,2.23-1.21.89-.31,1.95-.46,3.18-.46,2.51,0,4.32.54,5.42,1.62s1.65,2.6,1.65,4.57v8.54c0,1.27.2,2.04.59,2.32v.16h-4.29ZM284.46,84.5c.63,0,1.19-.09,1.69-.28.49-.19.91-.43,1.24-.72.34-.29.59-.63.77-1.01.17-.38.26-.78.26-1.19v-2.52c-.39.24-.87.43-1.42.57-.56.14-1.12.28-1.69.41-1.18.26-2.05.57-2.62.92-.57.35-.85.92-.85,1.7s.24,1.34.72,1.65c.48.32,1.11.47,1.9.47Z"/>
    <path class="cls-1" d="M302.1,93.51c-.74,0-1.4-.09-1.96-.26-.57-.17-1.07-.4-1.51-.69l.59-1.05c.33.15.69.27,1.1.36.4.09.8.13,1.19.13.5,0,.94-.08,1.31-.25.37-.16.56-.42.56-.77,0-.31-.13-.54-.39-.7-.26-.16-.58-.25-.95-.25-.24,0-.46.02-.65.07-.2.04-.38.1-.56.16l-.52-.72,1.87-1.9c-1.18-.11-2.23-.41-3.16-.9-.93-.49-1.72-1.13-2.37-1.92-.65-.79-1.16-1.69-1.51-2.7-.35-1.01-.52-2.11-.52-3.29,0-1.24.2-2.41.59-3.49.39-1.08.95-2.02,1.69-2.82.73-.8,1.61-1.42,2.64-1.88s2.18-.69,3.47-.69c1.09,0,2.07.15,2.95.46.87.31,1.63.73,2.27,1.26s1.17,1.18,1.57,1.93.68,1.59.83,2.5h-4.35c-.15-.74-.5-1.36-1.03-1.85s-1.22-.74-2.05-.74c-1.35,0-2.37.47-3.04,1.42-.68.95-1.01,2.24-1.01,3.88s.32,2.88.97,3.85c.64.97,1.65,1.46,3.03,1.46.92,0,1.67-.23,2.26-.7.59-.47.96-1.18,1.11-2.14h4.29c-.15,1.7-.81,3.15-1.98,4.34s-2.77,1.87-4.8,2.05l-1.41,1.18v.07c.44-.07.86-.08,1.28-.03.41.04.79.15,1.11.33.33.17.59.41.79.7.2.29.29.66.29,1.1,0,.79-.38,1.4-1.15,1.83-.76.44-1.7.65-2.82.65Z"/>
    <path class="cls-1" d="M323.61,87.22c-.13-.17-.24-.44-.33-.79-.09-.35-.15-.71-.2-1.08h-.07c-.22.33-.46.63-.74.9s-.6.51-.98.7-.83.35-1.36.47c-.52.12-1.15.18-1.87.18-1.72,0-3.13-.44-4.22-1.31-1.09-.87-1.64-2.15-1.64-3.83,0-.92.17-1.69.52-2.32.35-.63.83-1.16,1.44-1.57.61-.41,1.33-.74,2.14-.97.82-.23,1.7-.41,2.64-.54,1.4-.2,2.42-.4,3.08-.62.65-.22.98-.64.98-1.28s-.23-1.1-.7-1.46c-.47-.36-1.17-.54-2.11-.54-1.05,0-1.83.19-2.36.57-.52.38-.82.98-.88,1.78h-3.96c.02-.74.19-1.45.49-2.11.31-.67.75-1.25,1.34-1.75.59-.5,1.33-.91,2.23-1.21.89-.31,1.95-.46,3.18-.46,2.51,0,4.32.54,5.42,1.62s1.65,2.6,1.65,4.57v8.54c0,1.27.2,2.04.59,2.32v.16h-4.29ZM322.17,68.4c-.39,0-.76-.05-1.1-.16-.34-.11-.65-.23-.95-.38-.29-.14-.57-.27-.82-.38-.25-.11-.49-.16-.7-.16-.48,0-.77.34-.88,1.01h-2.36c0-1.29.28-2.25.85-2.9.57-.64,1.27-.97,2.1-.97.39,0,.76.06,1.1.18.34.12.65.25.95.39.29.14.57.27.82.39s.49.18.7.18c.31,0,.52-.09.65-.28.13-.18.23-.43.29-.74h2.36c0,1.11-.26,2.02-.79,2.73-.52.71-1.27,1.06-2.23,1.06ZM319.16,84.5c.63,0,1.19-.09,1.69-.28.49-.19.91-.43,1.24-.72.34-.29.59-.63.77-1.01.17-.38.26-.78.26-1.19v-2.52c-.39.24-.87.43-1.42.57-.56.14-1.12.28-1.69.41-1.18.26-2.05.57-2.62.92-.57.35-.85.92-.85,1.7s.24,1.34.72,1.65c.48.32,1.11.47,1.9.47Z"/>
    <path class="cls-1" d="M338.08,87.71c-1.31,0-2.5-.23-3.57-.69-1.07-.46-1.99-1.09-2.77-1.88-.77-.8-1.38-1.73-1.8-2.82-.43-1.08-.64-2.24-.64-3.49s.21-2.41.64-3.49c.43-1.08,1.03-2.02,1.8-2.82.77-.8,1.7-1.42,2.77-1.88,1.07-.46,2.26-.69,3.57-.69s2.5.23,3.57.69,1.99,1.09,2.77,1.88c.77.8,1.38,1.74,1.8,2.82.43,1.08.64,2.24.64,3.49s-.21,2.41-.64,3.49c-.43,1.08-1.03,2.02-1.8,2.82-.77.8-1.7,1.42-2.77,1.88s-2.26.69-3.57.69ZM338.08,84.31c1.38,0,2.43-.5,3.16-1.51.73-1,1.1-2.33,1.1-3.96s-.37-2.96-1.1-3.98c-.73-1.01-1.78-1.52-3.16-1.52s-2.43.51-3.16,1.52c-.73,1.02-1.1,2.34-1.1,3.98s.37,2.96,1.1,3.96c.73,1,1.78,1.51,3.16,1.51Z"/>
  </g>
  <g>
    <path class="cls-1" d="M162.49,99.12h9.14v1.43h-7.51v4.09h6.82v1.38h-6.82v4.54h7.73v1.5h-9.35v-12.94Z"/>
    <path class="cls-1" d="M177.03,112.33c-1.29,0-2.29-.29-2.99-.86-.7-.57-1.09-1.39-1.16-2.45h1.5c.05.41.15.75.31,1.01.16.27.35.48.59.63.24.16.5.27.81.33.3.07.63.1.98.1.77,0,1.33-.15,1.66-.44.34-.29.51-.66.51-1.09,0-.26-.04-.49-.14-.66-.09-.17-.23-.32-.43-.44-.2-.12-.45-.22-.76-.31-.31-.08-.68-.17-1.11-.27-.46-.1-.9-.2-1.32-.31-.42-.11-.79-.26-1.11-.46-.32-.2-.58-.46-.77-.79-.19-.33-.29-.74-.29-1.25,0-.78.29-1.41.86-1.87.57-.46,1.41-.7,2.51-.7,1.17,0,2.05.26,2.63.78s.93,1.24,1.04,2.15h-1.5c-.07-.62-.28-1.06-.63-1.35-.35-.28-.87-.43-1.57-.43s-1.16.13-1.45.39c-.29.26-.43.58-.43.95,0,.25.05.46.16.62.11.16.27.3.49.41.22.11.48.2.8.27s.67.15,1.07.24c.47.1.91.2,1.33.32.42.12.78.28,1.1.49.32.21.57.49.75.82s.27.78.27,1.32c0,.47-.09.88-.27,1.24-.18.36-.43.65-.76.89s-.71.41-1.17.53c-.45.12-.95.18-1.49.18Z"/>
    <path class="cls-1" d="M186.1,112.31c-.7,0-1.33-.13-1.88-.39-.55-.26-1.03-.61-1.42-1.06-.39-.45-.69-.97-.9-1.56-.21-.6-.32-1.23-.32-1.91s.11-1.31.32-1.91c.21-.6.51-1.12.9-1.56.39-.45.87-.8,1.42-1.06s1.18-.39,1.88-.39c1.11,0,2.01.29,2.71.88.69.58,1.12,1.38,1.29,2.38h-1.48c-.11-.64-.38-1.14-.81-1.5-.43-.36-1-.54-1.71-.54-.49,0-.93.1-1.31.29-.38.19-.7.46-.95.8-.25.34-.44.73-.57,1.18s-.19.93-.19,1.45.06,1,.19,1.45.32.84.57,1.17c.25.33.57.59.95.79.38.19.82.29,1.31.29.76,0,1.36-.21,1.8-.62.44-.41.69-.98.75-1.7h1.45c-.1,1.13-.49,2.01-1.19,2.62-.7.62-1.63.92-2.8.92Z"/>
    <path class="cls-1" d="M195.45,112.31c-.7,0-1.33-.13-1.88-.39-.55-.26-1.03-.61-1.42-1.06-.39-.45-.69-.97-.9-1.56-.21-.6-.32-1.23-.32-1.91s.11-1.31.32-1.91c.21-.6.51-1.12.9-1.56.39-.45.87-.8,1.42-1.06s1.18-.39,1.88-.39,1.33.13,1.88.39c.55.26,1.03.61,1.42,1.06s.69.97.9,1.56c.2.6.31,1.23.31,1.91s-.1,1.31-.31,1.91c-.21.6-.5,1.12-.9,1.56s-.87.8-1.42,1.06c-.56.26-1.18.39-1.88.39ZM195.45,111.08c.49,0,.93-.1,1.3-.29.37-.19.69-.46.94-.79.25-.33.44-.72.57-1.17s.19-.93.19-1.45-.06-1-.19-1.45-.32-.84-.57-1.18c-.25-.34-.57-.6-.94-.8-.37-.19-.81-.29-1.3-.29s-.93.1-1.31.29c-.38.19-.7.46-.95.8-.25.34-.44.73-.57,1.18s-.19.93-.19,1.45.06,1,.19,1.45.32.84.57,1.17c.25.33.57.59.95.79.38.19.82.29,1.31.29Z"/>
    <path class="cls-1" d="M201.44,99.12h1.47v12.94h-1.47v-12.94Z"/>
    <path class="cls-1" d="M212.26,112.15c-.93,0-1.47-.46-1.61-1.39h-.02c-.14.18-.31.36-.51.53-.19.17-.42.33-.67.48-.25.14-.54.26-.86.34-.32.08-.68.13-1.08.13-.45,0-.86-.05-1.25-.15-.39-.1-.72-.26-1-.48-.28-.22-.51-.49-.67-.81-.16-.33-.24-.71-.24-1.16,0-.55.1-1.01.31-1.36s.49-.63.85-.85.79-.38,1.29-.5c.5-.12,1.04-.22,1.62-.32.33-.05.63-.1.9-.15.28-.05.52-.13.71-.22.2-.09.35-.21.46-.36.11-.15.16-.35.16-.61,0-.53-.18-.94-.54-1.22s-.88-.43-1.56-.43c-.76,0-1.33.17-1.72.5-.39.33-.59.85-.62,1.56h-1.41c.01-.45.1-.87.25-1.26s.39-.73.7-1,.69-.5,1.16-.66c.46-.16,1-.24,1.62-.24.49,0,.95.05,1.38.15s.79.27,1.09.5c.31.23.55.53.72.91s.26.85.26,1.4v4.45c0,.39.06.67.19.86.13.19.4.23.81.14h.05v1.07c-.1.04-.21.07-.33.1-.12.03-.28.05-.47.05ZM207.85,111.12c.48,0,.9-.08,1.27-.25.36-.16.66-.36.89-.61s.4-.51.52-.81c.11-.29.17-.58.17-.86v-1.59c-.24.16-.56.29-.95.41-.39.11-.79.21-1.19.28-.36.07-.71.14-1.03.22s-.61.18-.84.32c-.24.14-.42.32-.56.53s-.21.5-.21.83c0,.31.06.57.17.77.11.2.26.35.44.46.18.11.39.18.62.23.23.04.46.06.71.06Z"/>
    <path class="cls-1" d="M217.16,99.12h5.39c.69,0,1.29.11,1.8.33.51.22.94.52,1.28.92.28.31.49.68.64,1.09.15.42.23.87.23,1.37,0,1.19-.34,2.13-1.02,2.8-.68.67-1.73,1-3.16,1h-3.53v5.43h-1.63v-12.94ZM218.79,105.31h3.4c.92,0,1.59-.21,2.04-.64.44-.43.66-1.02.66-1.76s-.23-1.38-.68-1.77c-.45-.4-1.09-.6-1.93-.6h-3.49v4.78Z"/>
    <path class="cls-1" d="M231.82,112.31c-.7,0-1.33-.13-1.88-.39-.55-.26-1.03-.61-1.42-1.06-.39-.45-.69-.97-.9-1.56-.21-.6-.32-1.23-.32-1.91s.11-1.31.32-1.91c.21-.6.51-1.12.9-1.56.39-.45.87-.8,1.42-1.06s1.18-.39,1.88-.39,1.33.13,1.88.39c.55.26,1.03.61,1.42,1.06s.69.97.9,1.56c.2.6.31,1.23.31,1.91s-.1,1.31-.31,1.91c-.21.6-.5,1.12-.9,1.56s-.87.8-1.42,1.06c-.56.26-1.18.39-1.88.39ZM231.82,111.08c.49,0,.93-.1,1.3-.29.37-.19.69-.46.94-.79.25-.33.44-.72.57-1.17s.19-.93.19-1.45-.06-1-.19-1.45-.32-.84-.57-1.18c-.25-.34-.57-.6-.94-.8-.37-.19-.81-.29-1.3-.29s-.93.1-1.31.29c-.38.19-.7.46-.95.8-.25.34-.44.73-.57,1.18s-.19.93-.19,1.45.06,1,.19,1.45.32.84.57,1.17c.25.33.57.59.95.79.38.19.82.29,1.31.29Z"/>
    <path class="cls-1" d="M237.81,99.12h1.47v12.94h-1.47v-12.94Z"/>
    <path class="cls-1" d="M241.28,99.12h1.47v1.81h-1.47v-1.81ZM241.28,102.7h1.47v9.35h-1.47v-9.35Z"/>
    <path class="cls-1" d="M244.1,102.7h1.36v-2.95h1.47v2.95h1.81v1.19h-1.81v6.08c0,.33.08.55.24.68.16.13.4.19.7.19.14,0,.29-.02.43-.05.14-.03.26-.06.34-.08h.05v1.27c-.17.04-.35.07-.55.09-.2.02-.41.04-.62.04-.6,0-1.1-.14-1.48-.41-.39-.27-.58-.74-.58-1.4v-6.41h-1.36v-1.19Z"/>
    <path class="cls-1" d="M254.22,112.31c-.71,0-1.35-.13-1.91-.39-.56-.26-1.03-.61-1.42-1.06-.39-.45-.68-.97-.89-1.56-.21-.6-.31-1.23-.31-1.91s.11-1.31.32-1.91c.21-.6.51-1.12.9-1.56.39-.45.86-.8,1.4-1.06.54-.26,1.15-.39,1.81-.39.7,0,1.32.13,1.85.39.54.26.99.62,1.35,1.09.36.46.64,1.02.82,1.66s.28,1.35.28,2.13h-7.24c.02.47.11.91.25,1.32.14.41.34.77.6,1.07.25.3.56.54.92.71s.78.25,1.25.25c.69,0,1.25-.16,1.68-.48.43-.32.74-.8.9-1.44h1.43c-.22,1.01-.68,1.79-1.38,2.33-.7.54-1.58.81-2.64.81ZM254.13,103.63c-.43,0-.82.08-1.16.23s-.62.36-.86.63-.43.59-.58.96c-.15.37-.25.76-.3,1.19h5.63c-.05-.94-.3-1.68-.77-2.21-.46-.53-1.12-.8-1.96-.8ZM254.47,98.94h1.81l-1.48,2.3h-1.25l.92-2.3Z"/>
    <path class="cls-1" d="M263.83,112.31c-.7,0-1.33-.13-1.88-.39-.55-.26-1.03-.61-1.42-1.06-.39-.45-.69-.97-.9-1.56-.21-.6-.32-1.23-.32-1.91s.11-1.31.32-1.91c.21-.6.51-1.12.9-1.56.39-.45.87-.8,1.42-1.06s1.18-.39,1.88-.39c1.11,0,2.01.29,2.71.88.69.58,1.12,1.38,1.29,2.38h-1.48c-.11-.64-.38-1.14-.81-1.5-.43-.36-1-.54-1.71-.54-.49,0-.93.1-1.31.29-.38.19-.7.46-.95.8-.25.34-.44.73-.57,1.18s-.19.93-.19,1.45.06,1,.19,1.45.32.84.57,1.17c.25.33.57.59.95.79.38.19.82.29,1.31.29.76,0,1.36-.21,1.8-.62.44-.41.69-.98.75-1.7h1.45c-.1,1.13-.49,2.01-1.19,2.62-.7.62-1.63.92-2.8.92Z"/>
    <path class="cls-1" d="M270.65,103.94h.04c.34-.45.74-.8,1.22-1.06.48-.26,1.06-.39,1.75-.39.98,0,1.75.26,2.31.77.56.51.84,1.26.84,2.24v6.57h-1.47v-6.44c0-.62-.19-1.08-.56-1.41-.37-.33-.89-.49-1.56-.49-.37,0-.72.06-1.03.19-.31.13-.58.3-.81.53-.23.22-.41.49-.53.81-.13.32-.19.67-.19,1.06v5.75h-1.47v-9.35h1.47v1.23Z"/>
    <path class="cls-1" d="M278.7,99.12h1.47v1.81h-1.47v-1.81ZM278.7,102.7h1.47v9.35h-1.47v-9.35Z"/>
    <path class="cls-1" d="M286.12,112.31c-.7,0-1.33-.13-1.88-.39-.55-.26-1.03-.61-1.42-1.06-.39-.45-.69-.97-.9-1.56-.21-.6-.32-1.23-.32-1.91s.11-1.31.32-1.91c.21-.6.51-1.12.9-1.56.39-.45.87-.8,1.42-1.06s1.18-.39,1.88-.39c1.11,0,2.01.29,2.71.88.69.58,1.12,1.38,1.29,2.38h-1.48c-.11-.64-.38-1.14-.81-1.5-.43-.36-1-.54-1.71-.54-.49,0-.93.1-1.31.29-.38.19-.7.46-.95.8-.25.34-.44.73-.57,1.18s-.19.93-.19,1.45.06,1,.19,1.45.32.84.57,1.17c.25.33.57.59.95.79.38.19.82.29,1.31.29.76,0,1.36-.21,1.8-.62.44-.41.69-.98.75-1.7h1.45c-.1,1.13-.49,2.01-1.19,2.62-.7.62-1.63.92-2.8.92Z"/>
    <path class="cls-1" d="M298.82,112.15c-.93,0-1.47-.46-1.61-1.39h-.02c-.14.18-.31.36-.51.53-.19.17-.42.33-.67.48-.25.14-.54.26-.86.34-.32.08-.68.13-1.08.13-.45,0-.86-.05-1.25-.15-.39-.1-.72-.26-1-.48-.28-.22-.51-.49-.67-.81-.16-.33-.24-.71-.24-1.16,0-.55.1-1.01.31-1.36s.49-.63.85-.85.79-.38,1.29-.5c.5-.12,1.04-.22,1.62-.32.33-.05.63-.1.9-.15.28-.05.52-.13.71-.22.2-.09.35-.21.46-.36.11-.15.16-.35.16-.61,0-.53-.18-.94-.54-1.22s-.88-.43-1.56-.43c-.76,0-1.33.17-1.72.5-.39.33-.59.85-.62,1.56h-1.41c.01-.45.1-.87.25-1.26s.39-.73.7-1,.69-.5,1.16-.66c.46-.16,1-.24,1.62-.24.49,0,.95.05,1.38.15s.79.27,1.09.5c.31.23.55.53.72.91s.26.85.26,1.4v4.45c0,.39.06.67.19.86.13.19.4.23.81.14h.05v1.07c-.1.04-.21.07-.33.1-.12.03-.28.05-.47.05ZM294.4,111.12c.48,0,.9-.08,1.27-.25.36-.16.66-.36.89-.61s.4-.51.52-.81c.11-.29.17-.58.17-.86v-1.59c-.24.16-.56.29-.95.41-.39.11-.79.21-1.19.28-.36.07-.71.14-1.03.22s-.61.18-.84.32c-.24.14-.42.32-.56.53s-.21.5-.21.83c0,.31.06.57.17.77.11.2.26.35.44.46.18.11.39.18.62.23.23.04.46.06.71.06Z"/>
  </g>
</svg>