<?xml version="1.0" encoding="UTF-8"?>
<svg id="Layer_1" xmlns="http://www.w3.org/2000/svg" viewBox="0 0 1032.95 338.21">
  <defs>
    <style>
      .cls-1, .cls-2 {
        fill: #1d1d1b;
      }

      .cls-2 {
        fill-rule: evenodd;
      }
    </style>
  </defs>
  <g>
    <path class="cls-2" d="M283.42,73.94h-43.89l-85.39,123.84v-12.11l76.39-111.74h-10.25l-66.14,95.45v-12.11l56.58-83.35h-10.88l-45.71,67.04v-12.05l36.69-54.99h-10.82l-25.87,38.08v-38.08H23.05c0,.41-.02.81-.02,1.23,0,72.08,58.29,130.52,130.19,130.52s130.19-58.43,130.19-130.52v-1.23Z"/>
    <path class="cls-2" d="M38.6,259.47h0c-.04,7.9-6.46,14.28-14.37,14.28s-14.34-6.38-14.37-14.28h-.02v-27.32H0v27.37h0c.05,13.33,10.87,24.1,24.23,24.1s24.19-10.77,24.23-24.1h0v-27.37h-9.87v27.32Z"/>
    <rect class="cls-1" x="123.43" y="232.43" width="9.56" height="50.9"/>
    <polygon class="cls-2" points="185.09 232.43 168.48 274.96 151.87 232.43 141.51 232.43 161.38 283.33 175.52 283.33 195.47 232.43 185.09 232.43"/>
    <polygon class="cls-2" points="209.22 232.43 189.35 283.33 199.72 283.33 216.32 240.79 232.93 283.33 243.32 283.33 223.36 232.43 209.22 232.43"/>
    <polygon class="cls-2" points="100.63 271.61 71.25 232.43 61.6 232.43 61.6 283.33 71.25 283.33 71.25 246.06 99.2 283.33 110.27 283.33 110.27 232.43 100.63 232.43 100.63 271.61"/>
    <polygon class="cls-2" points="262.44 232.46 252.32 232.46 252.32 283.3 287.56 283.3 287.56 275.61 262.44 275.61 262.44 232.46"/>
    <rect class="cls-1" x="296.83" y="232.43" width="9.63" height="50.9"/>
  </g>
  <g>
    <path class="cls-1" d="M518.73,146.09c-9.63,0-17.07-2.03-22.31-6.08-5.24-4.06-8-9.85-8.26-17.37h14.05c.53,4.29,2.04,7.34,4.55,9.15,2.51,1.82,6.3,2.72,11.38,2.72,1.85,0,3.59-.16,5.24-.49,1.65-.33,3.1-.86,4.35-1.58,1.25-.73,2.26-1.67,3.02-2.82.76-1.15,1.14-2.56,1.14-4.21s-.41-3.13-1.24-4.25c-.83-1.12-2-2.06-3.51-2.82-1.52-.76-3.35-1.42-5.49-1.98-2.14-.56-4.57-1.14-7.27-1.73-3.17-.73-6.22-1.53-9.15-2.42-2.94-.89-5.51-2.09-7.72-3.61-2.21-1.52-3.99-3.46-5.34-5.84-1.35-2.37-2.03-5.41-2.03-9.1,0-3.5.68-6.56,2.03-9.2,1.35-2.64,3.23-4.85,5.64-6.63,2.41-1.78,5.26-3.12,8.56-4.01,3.3-.89,6.93-1.34,10.88-1.34,7.98,0,14.4,1.88,19.25,5.64,4.85,3.76,7.54,9.24,8.06,16.43h-13.75c-.4-3.56-1.85-6.23-4.35-8.01-2.51-1.78-5.61-2.67-9.3-2.67-3.89,0-6.99.76-9.3,2.28-2.31,1.52-3.46,3.53-3.46,6.04,0,1.45.31,2.66.94,3.61.63.96,1.58,1.8,2.87,2.52,1.29.73,2.88,1.35,4.8,1.88,1.91.53,4.19,1.09,6.83,1.68,3.63.79,7.04,1.67,10.24,2.62,3.2.96,6,2.23,8.41,3.81,2.41,1.58,4.3,3.6,5.69,6.04,1.38,2.44,2.08,5.57,2.08,9.4,0,3.56-.69,6.75-2.08,9.55-1.39,2.8-3.3,5.15-5.74,7.03-2.44,1.88-5.34,3.31-8.71,4.3-3.36.99-7.03,1.48-10.98,1.48Z"/>
    <path class="cls-1" d="M553.76,73.76h13.46v12.07h-13.46v-12.07ZM553.76,93.75h13.46v50.76h-13.46v-50.76Z"/>
    <path class="cls-1" d="M596.5,145.99c-7.39,0-13.09-1.63-17.12-4.9-4.02-3.27-6.23-7.6-6.63-13.01h12.47c.46,2.97,1.67,5.11,3.61,6.43,1.95,1.32,4.44,1.98,7.47,1.98s5.26-.53,6.88-1.58c1.62-1.05,2.42-2.47,2.42-4.25,0-1.19-.38-2.14-1.14-2.87-.76-.73-1.75-1.32-2.97-1.78-1.22-.46-2.64-.84-4.25-1.14-1.62-.3-3.28-.61-5-.94-2.31-.46-4.54-.99-6.68-1.58-2.14-.59-4.06-1.45-5.74-2.57-1.68-1.12-3.03-2.57-4.06-4.35-1.02-1.78-1.53-4.06-1.53-6.83s.53-5.16,1.58-7.17c1.05-2.01,2.52-3.69,4.4-5.05,1.88-1.35,4.07-2.36,6.58-3.02,2.51-.66,5.21-.99,8.11-.99,6.73,0,11.91,1.52,15.53,4.55,3.63,3.04,5.71,7.12,6.23,12.27h-12.17c-.33-2.77-1.32-4.7-2.97-5.79-1.65-1.09-3.92-1.63-6.83-1.63-2.64,0-4.75.48-6.33,1.43-1.58.96-2.38,2.36-2.38,4.21,0,1.12.4,2,1.19,2.62.79.63,1.83,1.15,3.12,1.58,1.29.43,2.77.78,4.45,1.04,1.68.26,3.41.59,5.19.99,2.11.46,4.24.99,6.38,1.58,2.14.59,4.07,1.47,5.79,2.62,1.71,1.15,3.1,2.67,4.16,4.55,1.05,1.88,1.58,4.3,1.58,7.27,0,2.57-.53,4.87-1.58,6.88-1.06,2.01-2.52,3.71-4.4,5.1s-4.12,2.46-6.73,3.22c-2.61.76-5.49,1.14-8.66,1.14Z"/>
    <path class="cls-1" d="M619.95,93.75h7.03v-15.83h13.16v15.83h8.71v8.91h-8.71v26.91c0,1.91.46,3.23,1.38,3.96.92.73,2.14,1.09,3.66,1.09h2.57c.46,0,.92-.03,1.38-.1v9.89c-.66.07-1.38.1-2.18.1-.73.06-1.62.1-2.67.1h-3.56c-1.65,0-3.28-.18-4.9-.54-1.62-.36-3.08-1-4.4-1.93-1.32-.92-2.39-2.18-3.22-3.76-.83-1.58-1.24-3.56-1.24-5.94v-29.78h-7.03v-8.91Z"/>
    <path class="cls-1" d="M679.12,145.99c-4.22,0-7.96-.69-11.23-2.08-3.27-1.39-6.02-3.28-8.26-5.69-2.24-2.41-3.94-5.26-5.1-8.56-1.15-3.3-1.73-6.83-1.73-10.59s.61-7.27,1.83-10.54c1.22-3.27,2.93-6.08,5.14-8.46,2.21-2.37,4.85-4.25,7.92-5.64s6.45-2.08,10.14-2.08c4.09,0,7.68.74,10.79,2.23,3.1,1.48,5.71,3.58,7.82,6.28,2.11,2.71,3.71,5.92,4.8,9.65,1.09,3.73,1.63,7.87,1.63,12.42h-36.81c.53,3.96,1.86,7.06,4.01,9.3,2.14,2.24,5.13,3.36,8.95,3.36,2.64,0,4.75-.56,6.33-1.68,1.58-1.12,2.74-2.64,3.46-4.55h13.26c-.46,2.24-1.3,4.37-2.52,6.38-1.22,2.01-2.8,3.78-4.75,5.29-1.95,1.52-4.24,2.72-6.88,3.61-2.64.89-5.58,1.34-8.81,1.34ZM678.03,102.75c-3.56,0-6.27.97-8.11,2.92-1.85,1.95-3.07,4.6-3.66,7.97h22.56c-.2-3.23-1.27-5.85-3.22-7.87-1.95-2.01-4.47-3.02-7.57-3.02Z"/>
    <path class="cls-1" d="M709.1,93.75h12.96v6.83h.3c1.39-2.31,3.3-4.25,5.74-5.84,2.44-1.58,5.44-2.37,9-2.37,3.23,0,6.07.81,8.51,2.42,2.44,1.62,4.29,3.78,5.54,6.48h.2c1.71-2.77,3.87-4.95,6.48-6.53,2.6-1.58,5.52-2.37,8.76-2.37,5.34,0,9.46,1.6,12.37,4.8,2.9,3.2,4.35,7.6,4.35,13.21v34.14h-13.46v-31.86c0-2.9-.68-5.08-2.03-6.53-1.35-1.45-3.28-2.18-5.79-2.18-2.84,0-5.06,1.01-6.68,3.02-1.62,2.01-2.42,4.7-2.42,8.06v29.49h-13.46v-31.86c0-2.9-.68-5.08-2.03-6.53-1.35-1.45-3.28-2.18-5.79-2.18-2.77,0-4.98,1.01-6.63,3.02-1.65,2.01-2.47,4.7-2.47,8.06v29.49h-13.46v-50.76Z"/>
    <path class="cls-1" d="M823.58,144.51c-.4-.53-.73-1.32-.99-2.37-.26-1.05-.46-2.14-.59-3.27h-.2c-.66.99-1.4,1.9-2.23,2.72-.83.83-1.81,1.53-2.97,2.13-1.16.59-2.52,1.07-4.11,1.43-1.58.36-3.46.54-5.64.54-5.21,0-9.47-1.32-12.76-3.96-3.3-2.64-4.95-6.5-4.95-11.58,0-2.77.53-5.11,1.58-7.03,1.05-1.91,2.51-3.5,4.35-4.75,1.85-1.25,4.01-2.23,6.48-2.92,2.47-.69,5.13-1.24,7.96-1.63,4.22-.59,7.32-1.22,9.3-1.88,1.98-.66,2.97-1.94,2.97-3.86s-.71-3.31-2.13-4.4c-1.42-1.09-3.55-1.63-6.38-1.63-3.17,0-5.54.58-7.12,1.73-1.58,1.15-2.47,2.95-2.67,5.39h-11.97c.06-2.24.56-4.37,1.48-6.38.92-2.01,2.28-3.78,4.06-5.29,1.78-1.52,4.02-2.74,6.73-3.66,2.7-.92,5.9-1.39,9.6-1.39,7.58,0,13.04,1.63,16.38,4.9,3.33,3.27,5,7.87,5,13.8v25.83c0,3.83.59,6.17,1.78,7.03v.49h-12.96ZM810.13,136.3c1.91,0,3.61-.28,5.1-.84,1.48-.56,2.74-1.29,3.76-2.18,1.02-.89,1.8-1.91,2.33-3.07.53-1.15.79-2.36.79-3.61v-7.62c-1.19.73-2.62,1.3-4.3,1.73-1.68.43-3.38.84-5.1,1.24-3.56.79-6.2,1.72-7.92,2.77-1.72,1.06-2.57,2.77-2.57,5.15s.73,4.04,2.18,5c1.45.96,3.36,1.44,5.74,1.44Z"/>
    <path class="cls-1" d="M863.85,145.99c-7.39,0-13.09-1.63-17.12-4.9-4.02-3.27-6.23-7.6-6.63-13.01h12.47c.46,2.97,1.67,5.11,3.61,6.43,1.95,1.32,4.44,1.98,7.47,1.98s5.26-.53,6.88-1.58c1.62-1.05,2.42-2.47,2.42-4.25,0-1.19-.38-2.14-1.14-2.87-.76-.73-1.75-1.32-2.97-1.78-1.22-.46-2.64-.84-4.25-1.14-1.62-.3-3.28-.61-5-.94-2.31-.46-4.54-.99-6.68-1.58-2.14-.59-4.06-1.45-5.74-2.57-1.68-1.12-3.03-2.57-4.06-4.35-1.02-1.78-1.53-4.06-1.53-6.83s.53-5.16,1.58-7.17c1.05-2.01,2.52-3.69,4.4-5.05,1.88-1.35,4.07-2.36,6.58-3.02,2.51-.66,5.21-.99,8.11-.99,6.73,0,11.91,1.52,15.53,4.55,3.63,3.04,5.71,7.12,6.23,12.27h-12.17c-.33-2.77-1.32-4.7-2.97-5.79-1.65-1.09-3.92-1.63-6.83-1.63-2.64,0-4.75.48-6.33,1.43-1.58.96-2.38,2.36-2.38,4.21,0,1.12.4,2,1.19,2.62.79.63,1.83,1.15,3.12,1.58,1.29.43,2.77.78,4.45,1.04,1.68.26,3.41.59,5.19.99,2.11.46,4.24.99,6.38,1.58,2.14.59,4.07,1.47,5.79,2.62,1.71,1.15,3.1,2.67,4.16,4.55,1.05,1.88,1.58,4.3,1.58,7.27,0,2.57-.53,4.87-1.58,6.88-1.06,2.01-2.52,3.71-4.4,5.1s-4.12,2.46-6.73,3.22c-2.61.76-5.49,1.14-8.66,1.14Z"/>
    <path class="cls-1" d="M490.24,212.75h12.96v6.33h.3c1.65-2.24,3.68-4.09,6.09-5.54,2.41-1.45,5.36-2.18,8.86-2.18s6.4.66,9.1,1.98c2.7,1.32,5.03,3.15,6.98,5.49,1.95,2.34,3.43,5.16,4.45,8.46,1.02,3.3,1.53,6.93,1.53,10.88s-.53,7.8-1.58,11.13c-1.06,3.33-2.56,6.15-4.5,8.46-1.95,2.31-4.27,4.09-6.98,5.34-2.71,1.25-5.67,1.88-8.91,1.88-3.56,0-6.53-.66-8.91-1.98s-4.29-3.07-5.74-5.24h-.2v22.36h-13.46v-67.38ZM515.66,253.82c3.43,0,6.15-1.34,8.16-4.01,2.01-2.67,3.02-6.41,3.02-11.23s-.91-8.74-2.72-11.77c-1.81-3.03-4.8-4.55-8.95-4.55-2.11,0-3.91.43-5.39,1.29-1.48.86-2.71,2.01-3.66,3.46-.96,1.45-1.65,3.18-2.08,5.19-.43,2.01-.64,4.14-.64,6.38,0,4.62,1.04,8.31,3.12,11.08,2.08,2.77,5.13,4.16,9.15,4.16Z"/>
    <path class="cls-1" d="M578.69,263.51c-.4-.53-.73-1.32-.99-2.37-.26-1.05-.46-2.14-.59-3.27h-.2c-.66.99-1.4,1.9-2.23,2.72-.83.83-1.81,1.53-2.97,2.13-1.16.59-2.52,1.07-4.11,1.43-1.58.36-3.46.54-5.64.54-5.21,0-9.47-1.32-12.76-3.96-3.3-2.64-4.95-6.5-4.95-11.58,0-2.77.53-5.11,1.58-7.03,1.05-1.91,2.51-3.5,4.35-4.75,1.85-1.25,4.01-2.23,6.48-2.92,2.47-.69,5.13-1.24,7.96-1.63,4.22-.59,7.32-1.22,9.3-1.88,1.98-.66,2.97-1.94,2.97-3.86s-.71-3.31-2.13-4.4c-1.42-1.09-3.55-1.63-6.38-1.63-3.17,0-5.54.58-7.12,1.73-1.58,1.15-2.47,2.95-2.67,5.39h-11.97c.06-2.24.56-4.37,1.48-6.38.92-2.01,2.28-3.78,4.06-5.29,1.78-1.52,4.02-2.74,6.73-3.66,2.7-.92,5.9-1.39,9.6-1.39,7.58,0,13.04,1.63,16.38,4.9,3.33,3.27,5,7.87,5,13.8v25.83c0,3.83.59,6.17,1.78,7.03v.49h-12.96ZM565.24,255.3c1.91,0,3.61-.28,5.1-.84,1.48-.56,2.74-1.29,3.76-2.18,1.02-.89,1.8-1.91,2.33-3.07.53-1.15.79-2.36.79-3.61v-7.62c-1.19.73-2.62,1.3-4.3,1.73-1.68.43-3.38.84-5.1,1.24-3.56.79-6.2,1.72-7.92,2.77-1.72,1.06-2.57,2.77-2.57,5.15s.73,4.04,2.18,5c1.45.96,3.36,1.44,5.74,1.44Z"/>
    <path class="cls-1" d="M611.34,220.87h.3c1.52-2.9,3.23-5.08,5.15-6.53,1.91-1.45,4.35-2.18,7.32-2.18,1.38,0,2.44.13,3.17.4v11.77h-.3c-4.42-.46-8.05.49-10.88,2.87-2.84,2.37-4.25,6.23-4.25,11.58v24.74h-13.46v-50.76h12.96v8.11Z"/>
    <path class="cls-1" d="M663.59,263.51c-.4-.53-.73-1.32-.99-2.37-.26-1.05-.46-2.14-.59-3.27h-.2c-.66.99-1.4,1.9-2.23,2.72-.83.83-1.81,1.53-2.97,2.13-1.16.59-2.52,1.07-4.11,1.43-1.58.36-3.46.54-5.64.54-5.21,0-9.47-1.32-12.76-3.96-3.3-2.64-4.95-6.5-4.95-11.58,0-2.77.53-5.11,1.58-7.03,1.05-1.91,2.51-3.5,4.35-4.75,1.85-1.25,4.01-2.23,6.48-2.92,2.47-.69,5.13-1.24,7.96-1.63,4.22-.59,7.32-1.22,9.3-1.88,1.98-.66,2.97-1.94,2.97-3.86s-.71-3.31-2.13-4.4c-1.42-1.09-3.55-1.63-6.38-1.63-3.17,0-5.54.58-7.12,1.73-1.58,1.15-2.47,2.95-2.67,5.39h-11.97c.06-2.24.56-4.37,1.48-6.38.92-2.01,2.28-3.78,4.06-5.29,1.78-1.52,4.02-2.74,6.73-3.66,2.7-.92,5.9-1.39,9.6-1.39,7.58,0,13.04,1.63,16.38,4.9,3.33,3.27,5,7.87,5,13.8v25.83c0,3.83.59,6.17,1.78,7.03v.49h-12.96ZM650.13,255.3c1.91,0,3.61-.28,5.1-.84,1.48-.56,2.74-1.29,3.76-2.18,1.02-.89,1.8-1.91,2.33-3.07.53-1.15.79-2.36.79-3.61v-7.62c-1.19.73-2.62,1.3-4.3,1.73-1.68.43-3.38.84-5.1,1.24-3.56.79-6.2,1.72-7.92,2.77-1.72,1.06-2.57,2.77-2.57,5.15s.73,4.04,2.18,5c1.45.96,3.36,1.44,5.74,1.44Z"/>
    <path class="cls-1" d="M701.09,192.77h14.35v70.75h-14.35v-70.75Z"/>
    <path class="cls-1" d="M738.49,219.68h.3c1.71-2.77,3.78-4.85,6.18-6.23,2.41-1.39,5.36-2.08,8.86-2.08,2.64,0,5.03.48,7.17,1.43,2.14.96,3.97,2.28,5.49,3.96,1.52,1.68,2.7,3.68,3.56,5.99.86,2.31,1.29,4.85,1.29,7.62v33.15h-13.46v-31.17c0-2.77-.76-5.01-2.28-6.73-1.52-1.71-3.69-2.57-6.53-2.57s-5.43,1.07-7.37,3.22c-1.95,2.14-2.92,4.96-2.92,8.46v28.79h-13.46v-50.76h13.16v6.93Z"/>
    <path class="cls-1" d="M775.69,212.75h7.03v-15.83h13.16v15.83h8.71v8.91h-8.71v26.91c0,1.91.46,3.23,1.38,3.96.92.73,2.14,1.09,3.66,1.09h2.57c.46,0,.92-.03,1.38-.1v9.89c-.66.07-1.38.1-2.18.1-.73.06-1.62.1-2.67.1h-3.56c-1.65,0-3.28-.18-4.9-.54-1.62-.36-3.08-1-4.4-1.93-1.32-.92-2.39-2.18-3.22-3.76-.83-1.58-1.24-3.56-1.24-5.94v-29.78h-7.03v-8.91Z"/>
    <path class="cls-1" d="M834.86,265c-4.22,0-7.96-.69-11.23-2.08-3.27-1.39-6.02-3.28-8.26-5.69-2.24-2.41-3.94-5.26-5.1-8.56-1.15-3.3-1.73-6.83-1.73-10.59s.61-7.27,1.83-10.54c1.22-3.27,2.93-6.08,5.14-8.46,2.21-2.37,4.85-4.25,7.92-5.64s6.45-2.08,10.14-2.08c4.09,0,7.68.74,10.79,2.23,3.1,1.48,5.71,3.58,7.82,6.28,2.11,2.71,3.71,5.92,4.8,9.65,1.09,3.73,1.63,7.87,1.63,12.42h-36.81c.53,3.96,1.86,7.06,4.01,9.3,2.14,2.24,5.13,3.36,8.95,3.36,2.64,0,4.75-.56,6.33-1.68,1.58-1.12,2.74-2.64,3.46-4.55h13.26c-.46,2.24-1.3,4.37-2.52,6.38-1.22,2.01-2.8,3.78-4.75,5.29-1.95,1.52-4.24,2.72-6.88,3.61-2.64.89-5.58,1.34-8.81,1.34ZM833.77,221.76c-3.56,0-6.27.97-8.11,2.92-1.85,1.95-3.07,4.6-3.66,7.97h22.56c-.2-3.23-1.27-5.85-3.22-7.87-1.95-2.01-4.47-3.02-7.57-3.02Z"/>
    <path class="cls-1" d="M877.8,220.87h.3c1.52-2.9,3.23-5.08,5.15-6.53,1.91-1.45,4.35-2.18,7.32-2.18,1.38,0,2.44.13,3.17.4v11.77h-.3c-4.42-.46-8.05.49-10.88,2.87-2.84,2.37-4.25,6.23-4.25,11.58v24.74h-13.46v-50.76h12.96v8.11Z"/>
    <path class="cls-1" d="M912.73,219.68h.3c1.71-2.77,3.78-4.85,6.18-6.23,2.41-1.39,5.36-2.08,8.86-2.08,2.64,0,5.03.48,7.17,1.43,2.14.96,3.97,2.28,5.49,3.96,1.52,1.68,2.7,3.68,3.56,5.99.86,2.31,1.29,4.85,1.29,7.62v33.15h-13.46v-31.17c0-2.77-.76-5.01-2.28-6.73-1.52-1.71-3.69-2.57-6.53-2.57s-5.43,1.07-7.37,3.22c-1.95,2.14-2.92,4.96-2.92,8.46v28.79h-13.46v-50.76h13.16v6.93Z"/>
    <path class="cls-1" d="M977.74,265c-4.22,0-7.96-.69-11.23-2.08-3.27-1.39-6.02-3.28-8.26-5.69-2.24-2.41-3.94-5.26-5.1-8.56-1.15-3.3-1.73-6.83-1.73-10.59s.61-7.27,1.83-10.54c1.22-3.27,2.93-6.08,5.14-8.46,2.21-2.37,4.85-4.25,7.92-5.64s6.45-2.08,10.14-2.08c4.09,0,7.68.74,10.79,2.23,3.1,1.48,5.71,3.58,7.82,6.28,2.11,2.71,3.71,5.92,4.8,9.65,1.09,3.73,1.63,7.87,1.63,12.42h-36.81c.53,3.96,1.86,7.06,4.01,9.3,2.14,2.24,5.13,3.36,8.95,3.36,2.64,0,4.75-.56,6.33-1.68,1.58-1.12,2.74-2.64,3.46-4.55h13.26c-.46,2.24-1.3,4.37-2.52,6.38-1.22,2.01-2.8,3.78-4.75,5.29-1.95,1.52-4.24,2.72-6.88,3.61-2.64.89-5.58,1.34-8.81,1.34ZM976.65,221.76c-3.56,0-6.27.97-8.11,2.92-1.85,1.95-3.07,4.6-3.66,7.97h22.56c-.2-3.23-1.27-5.85-3.22-7.87-1.95-2.01-4.47-3.02-7.57-3.02Z"/>
    <path class="cls-1" d="M1003.76,212.75h7.03v-15.83h13.16v15.83h8.71v8.91h-8.71v26.91c0,1.91.46,3.23,1.38,3.96.92.73,2.14,1.09,3.66,1.09h2.57c.46,0,.92-.03,1.38-.1v9.89c-.66.07-1.38.1-2.18.1-.73.06-1.62.1-2.67.1h-3.56c-1.65,0-3.28-.18-4.9-.54-1.62-.36-3.08-1-4.4-1.93-1.32-.92-2.39-2.18-3.22-3.76-.83-1.58-1.24-3.56-1.24-5.94v-29.78h-7.03v-8.91Z"/>
  </g>
  <g>
    <path class="cls-1" d="M500.09,39.71c-3.48-3.47-6.85-11.24-6.85-11.24,0,0-3.35,7.78-6.83,11.24-4.16,4.15-11.18,6.82-11.18,6.82,0,0,7.02,2.66,11.18,6.81,3.48,3.46,6.83,11.24,6.83,11.24,0,0,3.37-7.78,6.85-11.24,4.15-4.15,11.21-6.81,11.21-6.81,0,0-7.06-2.67-11.21-6.82"/>
    <polygon class="cls-2" points="413.51 72.71 423.74 82.94 413.61 93.08 424.81 104.28 446.16 82.94 424.72 61.5 413.51 72.71"/>
    <polygon class="cls-2" points="445 72.71 455.22 82.94 445.09 93.08 456.31 104.28 477.64 82.94 456.21 61.5 445 72.71"/>
    <g>
      <path class="cls-1" d="M450.97,7.18c0,3.97-3.23,7.18-7.19,7.18s-7.17-3.21-7.17-7.18,3.21-7.18,7.17-7.18,7.19,3.23,7.19,7.18"/>
      <path class="cls-1" d="M470.92,7.18c0,3.97-3.22,7.18-7.19,7.18s-7.18-3.21-7.18-7.18,3.21-7.18,7.18-7.18,7.19,3.23,7.19,7.18"/>
      <path class="cls-1" d="M470.92,26.74c0,3.98-3.22,7.18-7.19,7.18s-7.18-3.2-7.18-7.18,3.21-7.18,7.18-7.18,7.19,3.21,7.19,7.18"/>
      <path class="cls-1" d="M450.97,26.74c0,3.98-3.23,7.18-7.19,7.18s-7.17-3.2-7.17-7.18,3.21-7.18,7.17-7.18,7.19,3.21,7.19,7.18"/>
    </g>
  </g>
  <g>
    <path class="cls-1" d="M489.96,298.43h27.52v4.3h-22.61v12.31h20.54v4.14h-20.54v13.68h23.27v4.52h-28.17v-38.96Z"/>
    <path class="cls-1" d="M533.88,338.21c-3.89,0-6.88-.86-8.99-2.59-2.11-1.73-3.27-4.19-3.49-7.38h4.52c.14,1.24.45,2.25.93,3.05.47.8,1.06,1.44,1.77,1.91.71.47,1.52.81,2.42,1.01.91.2,1.89.3,2.94.3,2.32,0,4-.44,5.01-1.33,1.02-.89,1.53-1.99,1.53-3.3,0-.8-.14-1.46-.41-1.99-.27-.53-.71-.97-1.31-1.33-.6-.36-1.36-.67-2.29-.93-.93-.25-2.04-.53-3.35-.82-1.38-.29-2.71-.6-3.98-.93-1.27-.33-2.39-.79-3.35-1.39-.96-.6-1.74-1.39-2.32-2.37-.58-.98-.87-2.23-.87-3.76,0-2.36.86-4.24,2.59-5.64,1.73-1.4,4.24-2.1,7.55-2.1,3.52,0,6.17.78,7.93,2.34,1.76,1.56,2.81,3.72,3.13,6.48h-4.52c-.22-1.85-.85-3.21-1.91-4.06-1.05-.85-2.63-1.28-4.74-1.28s-3.49.39-4.36,1.17c-.87.78-1.31,1.74-1.31,2.86,0,.76.16,1.39.49,1.88s.82.9,1.47,1.23c.65.33,1.45.6,2.4.82.94.22,2.02.45,3.21.71,1.42.29,2.75.61,4,.95,1.25.35,2.36.84,3.32,1.47.96.64,1.72,1.46,2.26,2.48.54,1.02.82,2.34.82,3.98,0,1.42-.27,2.66-.82,3.73-.54,1.07-1.31,1.96-2.29,2.67s-2.15,1.24-3.51,1.61-2.86.54-4.5.54Z"/>
    <path class="cls-1" d="M561.29,338.16c-2.11,0-4-.39-5.67-1.17s-3.1-1.84-4.28-3.19c-1.18-1.34-2.09-2.92-2.72-4.71-.64-1.8-.95-3.71-.95-5.75s.32-3.95.95-5.75c.64-1.8,1.54-3.37,2.72-4.71,1.18-1.34,2.61-2.41,4.28-3.19,1.67-.78,3.56-1.17,5.67-1.17,3.34,0,6.06.88,8.15,2.64,2.09,1.76,3.39,4.15,3.9,7.17h-4.47c-.33-1.93-1.14-3.43-2.42-4.52s-3.01-1.63-5.15-1.63c-1.49,0-2.81.29-3.95.87-1.14.58-2.1,1.38-2.86,2.4-.76,1.02-1.33,2.2-1.72,3.54-.38,1.34-.57,2.8-.57,4.36s.19,3.02.57,4.36c.38,1.34.95,2.52,1.72,3.51.76,1,1.72,1.79,2.86,2.37,1.14.58,2.46.87,3.95.87,2.29,0,4.1-.62,5.42-1.85,1.33-1.23,2.08-2.94,2.26-5.12h4.36c-.29,3.42-1.49,6.05-3.6,7.9-2.11,1.85-4.92,2.78-8.45,2.78Z"/>
    <path class="cls-1" d="M589.57,338.16c-2.11,0-4-.39-5.67-1.17s-3.1-1.84-4.28-3.19c-1.18-1.34-2.09-2.92-2.72-4.71-.64-1.8-.95-3.71-.95-5.75s.32-3.95.95-5.75c.64-1.8,1.54-3.37,2.72-4.71,1.18-1.34,2.61-2.41,4.28-3.19,1.67-.78,3.56-1.17,5.67-1.17s4,.39,5.67,1.17c1.67.78,3.1,1.84,4.28,3.19,1.18,1.34,2.08,2.92,2.7,4.71.62,1.8.93,3.71.93,5.75s-.31,3.95-.93,5.75c-.62,1.8-1.52,3.37-2.7,4.71-1.18,1.34-2.61,2.41-4.28,3.19-1.67.78-3.56,1.17-5.67,1.17ZM589.57,334.45c1.49,0,2.8-.29,3.92-.87,1.13-.58,2.07-1.37,2.83-2.37.76-1,1.33-2.17,1.72-3.51.38-1.34.57-2.8.57-4.36s-.19-3.02-.57-4.36c-.38-1.34-.95-2.52-1.72-3.54-.76-1.02-1.71-1.82-2.83-2.4-1.13-.58-2.43-.87-3.92-.87s-2.81.29-3.95.87c-1.14.58-2.1,1.38-2.86,2.4-.76,1.02-1.33,2.2-1.72,3.54-.38,1.34-.57,2.8-.57,4.36s.19,3.02.57,4.36c.38,1.34.95,2.52,1.72,3.51.76,1,1.72,1.79,2.86,2.37,1.14.58,2.46.87,3.95.87Z"/>
    <path class="cls-1" d="M607.72,298.43h4.41v38.96h-4.41v-38.96Z"/>
    <path class="cls-1" d="M640.41,337.67c-2.8,0-4.41-1.4-4.85-4.2h-.05c-.44.54-.94,1.08-1.53,1.61-.58.53-1.25,1.01-2.02,1.44-.76.44-1.63.78-2.59,1.04-.96.25-2.04.38-3.24.38-1.34,0-2.6-.15-3.76-.46-1.16-.31-2.17-.79-3.02-1.44s-1.53-1.47-2.02-2.45c-.49-.98-.74-2.14-.74-3.49,0-1.67.31-3.03.93-4.09.62-1.05,1.47-1.91,2.56-2.56s2.39-1.15,3.9-1.5c1.51-.34,3.13-.66,4.88-.95.98-.14,1.89-.3,2.72-.46.83-.16,1.55-.38,2.15-.65s1.06-.63,1.39-1.09c.33-.45.49-1.06.49-1.83,0-1.6-.54-2.82-1.63-3.68-1.09-.85-2.65-1.28-4.69-1.28-2.29,0-4.01.5-5.18,1.5-1.16,1-1.78,2.57-1.85,4.71h-4.25c.04-1.34.29-2.61.76-3.79.47-1.18,1.17-2.19,2.1-3.02.93-.84,2.09-1.5,3.49-1.99,1.4-.49,3.02-.74,4.88-.74,1.49,0,2.87.15,4.14.46,1.27.31,2.37.81,3.3,1.5.93.69,1.65,1.61,2.18,2.75.53,1.14.79,2.55.79,4.22v13.4c0,1.16.19,2.03.57,2.59.38.56,1.19.7,2.42.41h.16v3.21c-.29.11-.62.21-.98.3-.36.09-.84.14-1.42.14ZM627.11,334.56c1.45,0,2.72-.25,3.81-.74,1.09-.49,1.98-1.1,2.67-1.83.69-.73,1.21-1.53,1.55-2.42.34-.89.52-1.75.52-2.59v-4.8c-.73.47-1.68.88-2.86,1.23-1.18.35-2.37.63-3.57.84-1.09.22-2.12.44-3.11.65-.98.22-1.83.54-2.53.95-.71.42-1.27.95-1.69,1.61-.42.65-.63,1.49-.63,2.51,0,.94.17,1.72.52,2.32.34.6.79,1.06,1.33,1.39.54.33,1.16.55,1.85.68.69.13,1.4.19,2.12.19Z"/>
    <path class="cls-1" d="M655.4,298.43h16.24c2.07,0,3.88.33,5.42.98,1.54.65,2.82,1.58,3.84,2.78.84.95,1.48,2.04,1.93,3.3.45,1.25.68,2.62.68,4.11,0,3.6-1.03,6.4-3.08,8.42-2.05,2.02-5.22,3.02-9.51,3.02h-10.63v16.35h-4.9v-38.96ZM660.3,317.07h10.25c2.76,0,4.8-.64,6.13-1.93,1.33-1.29,1.99-3.06,1.99-5.31s-.68-4.14-2.04-5.34-3.3-1.8-5.8-1.8h-10.52v14.39Z"/>
    <path class="cls-1" d="M699.64,338.16c-2.11,0-4-.39-5.67-1.17s-3.1-1.84-4.28-3.19c-1.18-1.34-2.09-2.92-2.72-4.71-.64-1.8-.95-3.71-.95-5.75s.32-3.95.95-5.75c.64-1.8,1.54-3.37,2.72-4.71,1.18-1.34,2.61-2.41,4.28-3.19,1.67-.78,3.56-1.17,5.67-1.17s4,.39,5.67,1.17c1.67.78,3.1,1.84,4.28,3.19,1.18,1.34,2.08,2.92,2.7,4.71.62,1.8.93,3.71.93,5.75s-.31,3.95-.93,5.75c-.62,1.8-1.52,3.37-2.7,4.71-1.18,1.34-2.61,2.41-4.28,3.19-1.67.78-3.56,1.17-5.67,1.17ZM699.64,334.45c1.49,0,2.8-.29,3.92-.87,1.13-.58,2.07-1.37,2.83-2.37.76-1,1.33-2.17,1.72-3.51.38-1.34.57-2.8.57-4.36s-.19-3.02-.57-4.36c-.38-1.34-.95-2.52-1.72-3.54-.76-1.02-1.71-1.82-2.83-2.4-1.13-.58-2.43-.87-3.92-.87s-2.81.29-3.95.87c-1.14.58-2.1,1.38-2.86,2.4-.76,1.02-1.33,2.2-1.72,3.54-.38,1.34-.57,2.8-.57,4.36s.19,3.02.57,4.36c.38,1.34.95,2.52,1.72,3.51.76,1,1.72,1.79,2.86,2.37,1.14.58,2.46.87,3.95.87Z"/>
    <path class="cls-1" d="M717.79,298.43h4.41v38.96h-4.41v-38.96Z"/>
    <path class="cls-1" d="M728.36,298.43h4.41v5.45h-4.41v-5.45ZM728.36,309.22h4.41v28.17h-4.41v-28.17Z"/>
    <path class="cls-1" d="M736.97,309.22h4.09v-8.88h4.41v8.88h5.45v3.6h-5.45v18.31c0,.98.25,1.66.74,2.04.49.38,1.19.57,2.1.57.44,0,.87-.04,1.31-.14.44-.09.78-.17,1.04-.25h.16v3.81c-.51.11-1.06.2-1.66.27-.6.07-1.23.11-1.88.11-1.82,0-3.31-.41-4.47-1.23-1.16-.82-1.74-2.22-1.74-4.22v-19.29h-4.09v-3.6Z"/>
    <path class="cls-1" d="M767.54,338.16c-2.14,0-4.06-.39-5.75-1.17-1.69-.78-3.12-1.84-4.28-3.19-1.16-1.34-2.05-2.92-2.67-4.71-.62-1.8-.93-3.71-.93-5.75s.32-3.95.95-5.75c.64-1.8,1.54-3.37,2.72-4.71,1.18-1.34,2.59-2.41,4.22-3.19,1.63-.78,3.45-1.17,5.45-1.17,2.11,0,3.97.39,5.59,1.17,1.62.78,2.97,1.87,4.06,3.27,1.09,1.4,1.92,3.07,2.48,5.01.56,1.94.84,4.08.84,6.4h-21.8c.07,1.42.33,2.74.76,3.98.44,1.24,1.04,2.31,1.8,3.21.76.91,1.69,1.62,2.78,2.12,1.09.51,2.34.76,3.76.76,2.07,0,3.76-.48,5.07-1.44,1.31-.96,2.21-2.41,2.72-4.33h4.3c-.65,3.05-2.04,5.4-4.14,7.03-2.11,1.63-4.76,2.45-7.96,2.45ZM767.26,312c-1.31,0-2.47.23-3.49.68-1.02.45-1.88,1.09-2.59,1.91s-1.29,1.78-1.74,2.89c-.45,1.11-.75,2.3-.9,3.57h16.95c-.15-2.83-.92-5.05-2.32-6.65-1.4-1.6-3.37-2.4-5.91-2.4ZM768.3,297.89h5.45l-4.47,6.92h-3.76l2.78-6.92Z"/>
    <path class="cls-1" d="M796.58,338.16c-2.11,0-4-.39-5.67-1.17s-3.1-1.84-4.28-3.19c-1.18-1.34-2.09-2.92-2.72-4.71-.64-1.8-.95-3.71-.95-5.75s.32-3.95.95-5.75c.64-1.8,1.54-3.37,2.72-4.71,1.18-1.34,2.61-2.41,4.28-3.19,1.67-.78,3.56-1.17,5.67-1.17,3.34,0,6.06.88,8.15,2.64,2.09,1.76,3.39,4.15,3.9,7.17h-4.47c-.33-1.93-1.14-3.43-2.42-4.52s-3.01-1.63-5.15-1.63c-1.49,0-2.81.29-3.95.87-1.14.58-2.1,1.38-2.86,2.4-.76,1.02-1.33,2.2-1.72,3.54-.38,1.34-.57,2.8-.57,4.36s.19,3.02.57,4.36c.38,1.34.95,2.52,1.72,3.51.76,1,1.72,1.79,2.86,2.37,1.14.58,2.46.87,3.95.87,2.29,0,4.1-.62,5.42-1.85,1.33-1.23,2.08-2.94,2.26-5.12h4.36c-.29,3.42-1.49,6.05-3.6,7.9-2.11,1.85-4.92,2.78-8.45,2.78Z"/>
    <path class="cls-1" d="M817.23,312.93h.11c1.02-1.34,2.24-2.41,3.68-3.19,1.43-.78,3.19-1.17,5.26-1.17,2.94,0,5.26.77,6.95,2.32,1.69,1.54,2.53,3.79,2.53,6.73v19.78h-4.41v-19.4c0-1.85-.56-3.27-1.69-4.25-1.13-.98-2.69-1.47-4.69-1.47-1.13,0-2.16.19-3.11.57-.95.38-1.76.91-2.45,1.58-.69.67-1.23,1.49-1.61,2.45-.38.96-.57,2.03-.57,3.19v17.33h-4.41v-28.17h4.41v3.71Z"/>
    <path class="cls-1" d="M841.59,298.43h4.41v5.45h-4.41v-5.45ZM841.59,309.22h4.41v28.17h-4.41v-28.17Z"/>
    <path class="cls-1" d="M864.04,338.16c-2.11,0-4-.39-5.67-1.17s-3.1-1.84-4.28-3.19c-1.18-1.34-2.09-2.92-2.72-4.71-.64-1.8-.95-3.71-.95-5.75s.32-3.95.95-5.75c.64-1.8,1.54-3.37,2.72-4.71,1.18-1.34,2.61-2.41,4.28-3.19,1.67-.78,3.56-1.17,5.67-1.17,3.34,0,6.06.88,8.15,2.64,2.09,1.76,3.39,4.15,3.9,7.17h-4.47c-.33-1.93-1.14-3.43-2.42-4.52s-3.01-1.63-5.15-1.63c-1.49,0-2.81.29-3.95.87-1.14.58-2.1,1.38-2.86,2.4-.76,1.02-1.33,2.2-1.72,3.54-.38,1.34-.57,2.8-.57,4.36s.19,3.02.57,4.36c.38,1.34.95,2.52,1.72,3.51.76,1,1.72,1.79,2.86,2.37,1.14.58,2.46.87,3.95.87,2.29,0,4.1-.62,5.42-1.85,1.33-1.23,2.08-2.94,2.26-5.12h4.36c-.29,3.42-1.49,6.05-3.6,7.9-2.11,1.85-4.92,2.78-8.45,2.78Z"/>
    <path class="cls-1" d="M902.4,337.67c-2.8,0-4.41-1.4-4.85-4.2h-.05c-.44.54-.94,1.08-1.53,1.61-.58.53-1.25,1.01-2.02,1.44-.76.44-1.63.78-2.59,1.04-.96.25-2.04.38-3.24.38-1.34,0-2.6-.15-3.76-.46-1.16-.31-2.17-.79-3.02-1.44s-1.53-1.47-2.02-2.45c-.49-.98-.74-2.14-.74-3.49,0-1.67.31-3.03.93-4.09.62-1.05,1.47-1.91,2.56-2.56s2.39-1.15,3.9-1.5c1.51-.34,3.13-.66,4.88-.95.98-.14,1.89-.3,2.72-.46.83-.16,1.55-.38,2.15-.65s1.06-.63,1.39-1.09c.33-.45.49-1.06.49-1.83,0-1.6-.54-2.82-1.63-3.68-1.09-.85-2.65-1.28-4.69-1.28-2.29,0-4.01.5-5.18,1.5-1.16,1-1.78,2.57-1.85,4.71h-4.25c.04-1.34.29-2.61.76-3.79.47-1.18,1.17-2.19,2.1-3.02.93-.84,2.09-1.5,3.49-1.99,1.4-.49,3.02-.74,4.88-.74,1.49,0,2.87.15,4.14.46,1.27.31,2.37.81,3.3,1.5.93.69,1.65,1.61,2.18,2.75.53,1.14.79,2.55.79,4.22v13.4c0,1.16.19,2.03.57,2.59.38.56,1.19.7,2.42.41h.16v3.21c-.29.11-.62.21-.98.3-.36.09-.84.14-1.42.14ZM889.1,334.56c1.45,0,2.72-.25,3.81-.74,1.09-.49,1.98-1.1,2.67-1.83.69-.73,1.21-1.53,1.55-2.42.34-.89.52-1.75.52-2.59v-4.8c-.73.47-1.68.88-2.86,1.23-1.18.35-2.37.63-3.57.84-1.09.22-2.12.44-3.11.65-.98.22-1.83.54-2.53.95-.71.42-1.27.95-1.69,1.61-.42.65-.63,1.49-.63,2.51,0,.94.17,1.72.52,2.32.34.6.79,1.06,1.33,1.39.54.33,1.16.55,1.85.68.69.13,1.4.19,2.12.19Z"/>
  </g>
</svg>